<?xml version="1.0" encoding="UTF-8" standalone="no"?>
<!-- Created with Inkscape (http://www.inkscape.org/) -->

<svg
   xmlns:dc="http://purl.org/dc/elements/1.1/"
   xmlns:cc="http://creativecommons.org/ns#"
   xmlns:rdf="http://www.w3.org/1999/02/22-rdf-syntax-ns#"
   xmlns:svg="http://www.w3.org/2000/svg"
   xmlns="http://www.w3.org/2000/svg"
   xmlns:sodipodi="http://sodipodi.sourceforge.net/DTD/sodipodi-0.dtd"
   xmlns:inkscape="http://www.inkscape.org/namespaces/inkscape"
   width="248.03149"
   height="248.03149"
   id="svg2"
   version="1.1"
   inkscape:version="0.47pre4 r22446"
   sodipodi:docname="Neues Dokument 1">
  <defs
     id="defs4">
    <marker
       inkscape:stockid="Arrow1Lend"
       orient="auto"
       refY="0.0"
       refX="0.0"
       id="Arrow1Lend"
       style="overflow:visible;">
      <path
         id="path5126"
         d="M 0.0,0.0 L 5.0,-5.0 L -12.5,0.0 L 5.0,5.0 L 0.0,0.0 z "
         style="fill-rule:evenodd;stroke:#000000;stroke-width:1.0pt;marker-start:none;"
         transform="scale(0.8) rotate(180) translate(12.5,0)" />
    </marker>
    <pattern
       inkscape:stockid="Stripes 1:5"
       id="Strips1_5"
       patternTransform="matrix(1.2504813,1.3586344,-7.9764507,7.3414916,-37.352941,804.32938)"
       height="1"
       width="6"
       patternUnits="userSpaceOnUse"
       inkscape:collect="always">
      <rect
         id="rect4343"
         height="2"
         width="1"
         y="-0.5"
         x="0"
         style="fill:black;stroke:none" />
    </pattern>
    <inkscape:perspective
       sodipodi:type="inkscape:persp3d"
       inkscape:vp_x="0 : 526.18109 : 1"
       inkscape:vp_y="0 : 1000 : 0"
       inkscape:vp_z="744.09448 : 526.18109 : 1"
       inkscape:persp3d-origin="372.04724 : 350.78739 : 1"
       id="perspective10" />
    <inkscape:perspective
       id="perspective5052"
       inkscape:persp3d-origin="0.5 : 0.33333333 : 1"
       inkscape:vp_z="1 : 0.5 : 1"
       inkscape:vp_y="0 : 1000 : 0"
       inkscape:vp_x="0 : 0.5 : 1"
       sodipodi:type="inkscape:persp3d" />
    <inkscape:perspective
       id="perspective5074"
       inkscape:persp3d-origin="0.5 : 0.33333333 : 1"
       inkscape:vp_z="1 : 0.5 : 1"
       inkscape:vp_y="0 : 1000 : 0"
       inkscape:vp_x="0 : 0.5 : 1"
       sodipodi:type="inkscape:persp3d" />
    <inkscape:perspective
       id="perspective5074-9"
       inkscape:persp3d-origin="0.5 : 0.33333333 : 1"
       inkscape:vp_z="1 : 0.5 : 1"
       inkscape:vp_y="0 : 1000 : 0"
       inkscape:vp_x="0 : 0.5 : 1"
       sodipodi:type="inkscape:persp3d" />
    <inkscape:perspective
       id="perspective5074-90"
       inkscape:persp3d-origin="0.5 : 0.33333333 : 1"
       inkscape:vp_z="1 : 0.5 : 1"
       inkscape:vp_y="0 : 1000 : 0"
       inkscape:vp_x="0 : 0.5 : 1"
       sodipodi:type="inkscape:persp3d" />
    <inkscape:perspective
       id="perspective5582"
       inkscape:persp3d-origin="0.5 : 0.33333333 : 1"
       inkscape:vp_z="1 : 0.5 : 1"
       inkscape:vp_y="0 : 1000 : 0"
       inkscape:vp_x="0 : 0.5 : 1"
       sodipodi:type="inkscape:persp3d" />
    <inkscape:perspective
       id="perspective5607"
       inkscape:persp3d-origin="0.5 : 0.33333333 : 1"
       inkscape:vp_z="1 : 0.5 : 1"
       inkscape:vp_y="0 : 1000 : 0"
       inkscape:vp_x="0 : 0.5 : 1"
       sodipodi:type="inkscape:persp3d" />
    <inkscape:perspective
       id="perspective5638"
       inkscape:persp3d-origin="0.5 : 0.33333333 : 1"
       inkscape:vp_z="1 : 0.5 : 1"
       inkscape:vp_y="0 : 1000 : 0"
       inkscape:vp_x="0 : 0.5 : 1"
       sodipodi:type="inkscape:persp3d" />
    <inkscape:perspective
       id="perspective5677"
       inkscape:persp3d-origin="0.5 : 0.33333333 : 1"
       inkscape:vp_z="1 : 0.5 : 1"
       inkscape:vp_y="0 : 1000 : 0"
       inkscape:vp_x="0 : 0.5 : 1"
       sodipodi:type="inkscape:persp3d" />
    <inkscape:perspective
       id="perspective5677-7"
       inkscape:persp3d-origin="0.5 : 0.33333333 : 1"
       inkscape:vp_z="1 : 0.5 : 1"
       inkscape:vp_y="0 : 1000 : 0"
       inkscape:vp_x="0 : 0.5 : 1"
       sodipodi:type="inkscape:persp3d" />
  </defs>
  <sodipodi:namedview
     id="base"
     pagecolor="#ffffff"
     bordercolor="#666666"
     borderopacity="1.0"
     inkscape:pageopacity="0.0"
     inkscape:pageshadow="2"
     inkscape:zoom="2.8"
     inkscape:cx="96.09815"
     inkscape:cy="128.6752"
     inkscape:document-units="px"
     inkscape:current-layer="layer1"
     showgrid="true"
     units="cm"
     inkscape:window-width="1680"
     inkscape:window-height="1001"
     inkscape:window-x="0"
     inkscape:window-y="25"
     inkscape:window-maximized="1">
    <inkscape:grid
       type="xygrid"
       id="grid2816"
       empspacing="5"
       visible="true"
       enabled="true"
       snapvisiblegridlinesonly="true"
       originy="0px" />
  </sodipodi:namedview>
  <metadata
     id="metadata7">
    <rdf:RDF>
      <cc:Work
         rdf:about="">
        <dc:format>image/svg+xml</dc:format>
        <dc:type
           rdf:resource="http://purl.org/dc/dcmitype/StillImage" />
        <dc:title></dc:title>
      </cc:Work>
    </rdf:RDF>
  </metadata>
  <g
     inkscape:label="Ebene 1"
     inkscape:groupmode="layer"
     id="layer1"
     transform="translate(0,-804.32938)">
    <g
       id="g5114"
       transform="matrix(0.65217391,0,0,1,3.4782609,0)">
      <rect
         ry="4.4284729e-06"
         rx="1.3480924e-06"
         y="817.3609"
         x="10"
         height="30"
         width="230"
         id="rect2818"
         style="fill:url(#Strips1_5);fill-opacity:1;stroke:none" />
      <path
         transform="translate(0,804.32938)"
         id="path5036"
         d="m 10,43.031494 230,0"
         style="fill:none;stroke:#000000;stroke-width:1.23827839px;stroke-linecap:butt;stroke-linejoin:miter;stroke-opacity:1" />
    </g>
    <path
       id="path5107"
       style="fill:none;stroke:#000000;stroke-width:1px;stroke-linecap:butt;stroke-linejoin:miter;stroke-opacity:1"
       d="m 80,967.36087 c 15,0 15,-15 0,-15 -15,0 -15,20 0,20 15,0 15,-15 0,-15 -15,0 -15,20 0,20 15,0 15,-15 0,-15 -15,0 -15,20 0,20 15,0 15,-15 0,-15 -15,0 -15,20 0,19.82143 l 0,10.17857 m 0,-70 c 15,0 15,-15 0,-15 -15,0 -15,20 0,20 15,0 15,-15 0,-15 -15,0 -15,20 0,20 15,0 15,-15 0,-15 -15,0 -15,20 0,20 15,0 15,-15 0,-15 -15,0 -15,20.00001 0,20 15,0 15,-15 0,-15 -15,0 -15,20 0,20 15,0 15,-15 0,-15 -15,0 -15,20 0,20 15,0 15,-15 0,-15 -15,0 -15,20 0,20 15,0 15,-15 0,-15 -15,0 -15,20 0,20 m 0,-120 0,20 c -15,0 -15,20 0,20 15,0 15,-15 0,-15 -15,0 -15,20 0,20 15,0 15,-15 0,-15 -15,0 -15,20.00001 0,20.00001 15,0 15,-15.00001 0,-15.00001 -15,0 -15,20.00001 0,20.00001 15,0 15,-15.00001 0,-15.00001 -15,0 -15,20.00001 0,20 15,0 15,-15 0,-15 -15,0 -15,20 0,20 15,0 15,-15 0,-15 -15,0 -15,20 0,20 15,0 15,-15 0,-15 -15,0 -15,20 0,20 15,0 15,-15 0,-15 -15,0 -15,20 0,20"
       sodipodi:nodetypes="cssssssscccssssssscssssssscccsssssssscsssssssc" />
    <path
       sodipodi:type="arc"
       style="fill:#000000;fill-opacity:1;stroke:none"
       id="path5112"
       sodipodi:cx="125"
       sodipodi:cy="203.03149"
       sodipodi:rx="10"
       sodipodi:ry="10"
       d="m 135,203.03149 a 10,10 0 1 1 -20,0 10,10 0 1 1 20,0 z"
       transform="translate(-45,804.32938)" />
    <g
       id="g5717">
      <path
         id="path5118"
         d="m 175,817.36087 0,225.00003"
         style="fill:none;stroke:#000000;stroke-width:1px;stroke-linecap:butt;stroke-linejoin:miter;stroke-opacity:1;marker-end:url(#Arrow1Lend)" />
      <path
         d="m 170,827.36087 c 10,0 10,0 10,0 m -10,20 c 10,0 10,0 10,0 m -10,19.99997 c 10,0 10,0 10,0 m -10,20 c 10,0 10,0 10,0 m -10,20 c 10,0 10,0 10,0 m -10,20.00003 c 10,0 10,0 10,0 m -10,20 c 10,0 10,0 10,0 m -10,20 c 10,0 10,0 10,0 m -10,20 c 10,0 10,0 10,0 m -10,20.00003 c 10,0 10,0 10,0"
         style="fill:none;stroke:#000000;stroke-width:1px;stroke-linecap:butt;stroke-linejoin:miter;stroke-opacity:1"
         id="path5572-1-0-7" />
    </g>
    <flowRoot
       xml:space="preserve"
       id="flowRoot5661"
       style="font-size:18px;font-style:normal;font-variant:normal;font-weight:normal;font-stretch:normal;text-align:center;line-height:120.00000477%;writing-mode:lr-tb;text-anchor:middle;fill:#000000;fill-opacity:1;stroke:none;font-family:Sans;-inkscape-font-specification:Sans"
       transform="translate(57.043945,793.85092)"><flowRegion
         id="flowRegion5663"><rect
           id="rect5665"
           width="65"
           height="19.999979"
           x="100"
           y="143.03149"
           style="font-size:18px" /></flowRegion><flowPara
         id="flowPara5667">0</flowPara></flowRoot>    <flowRoot
       transform="translate(79.394531,731.85092)"
       xml:space="preserve"
       id="flowRoot5661-0"
       style="font-size:18px;font-style:normal;font-variant:normal;font-weight:normal;font-stretch:normal;text-align:center;line-height:120.00000477%;writing-mode:lr-tb;text-anchor:middle;fill:#000000;fill-opacity:1;stroke:none;font-family:Sans;-inkscape-font-specification:Sans"><flowRegion
         id="flowRegion5663-8"><rect
           id="rect5665-0"
           width="65"
           height="19.999979"
           x="100"
           y="143.03149"
           style="font-size:18px" /></flowRegion><flowPara
         id="flowPara5667-7">-1 = a</flowPara></flowRoot>    <flowRoot
       transform="translate(81.228516,852.78158)"
       xml:space="preserve"
       id="flowRoot5661-9"
       style="font-size:18px;font-style:normal;font-variant:normal;font-weight:normal;font-stretch:normal;text-align:center;line-height:120.00000477%;writing-mode:lr-tb;text-anchor:middle;fill:#000000;fill-opacity:1;stroke:none;font-family:Sans;-inkscape-font-specification:Sans"><flowRegion
         id="flowRegion5663-3"><rect
           id="rect5665-2"
           width="65"
           height="19.999979"
           x="100"
           y="143.03149"
           style="font-size:18px" /></flowRegion><flowPara
         id="flowPara5667-8">+1 = b</flowPara></flowRoot>  </g>
</svg>
